<svg width="226" height="96" viewBox="0 0 226 96" fill="none" xmlns="http://www.w3.org/2000/svg">
<path d="M225.266 1L0.266114 0.99999" stroke="black" stroke-width="2"/>
<path d="M204.147 85.8948C198.914 85.8948 194.836 81.575 194.836 76.3296C194.836 71.0841 198.914 66.7644 204.147 66.7644C209.379 66.7644 213.458 71.0841 213.458 76.3296C213.458 81.575 209.379 85.8948 204.147 85.8948ZM201.53 96C205.994 96 211.688 94.3029 214.843 87.669L215.151 87.8233C213.765 91.4488 213.765 93.6087 213.765 94.1487V94.9972H225V57.662H213.765V58.5105C213.765 59.0505 213.765 61.2104 215.151 64.8359L214.843 64.9902C211.688 58.3562 205.994 56.6592 201.53 56.6592C190.834 56.6592 183.293 65.1445 183.293 76.3296C183.293 87.5147 190.834 96 201.53 96ZM163.748 56.6592C158.67 56.6592 154.668 58.4334 151.436 64.9902L151.129 64.8359C152.514 61.2104 152.514 59.0505 152.514 58.5105V57.662H141.279V94.9972H152.821V75.3268C152.821 70.1585 155.823 66.9187 160.67 66.9187C165.518 66.9187 167.904 69.6957 167.904 75.2497V94.9972H179.446V71.2384C179.446 62.7532 172.828 56.6592 163.748 56.6592ZM124.581 64.9902L124.273 64.8359C125.658 61.2104 125.658 59.0505 125.658 58.5105V57.662H114.424V94.9972H125.966L126.043 77.0238C126.043 71.7784 128.813 68.6157 133.353 68.6157C134.584 68.6157 135.585 68.77 136.739 69.0785V57.662C131.66 56.582 127.12 58.5105 124.581 64.9902ZM87.8762 85.8948C82.6436 85.8948 78.5653 81.575 78.5653 76.3296C78.5653 71.0841 82.6436 66.7644 87.8762 66.7644C93.1088 66.7644 97.1871 71.0841 97.1871 76.3296C97.1871 81.575 93.1088 85.8948 87.8762 85.8948ZM85.2599 96C89.723 96 95.4173 94.3029 98.5722 87.669L98.88 87.8233C97.4949 91.4488 97.4949 93.6087 97.4949 94.1487V94.9972H108.729V57.662H97.4949V58.5105C97.4949 59.0505 97.4949 61.2104 98.88 64.8359L98.5722 64.9902C95.4173 58.3562 89.723 56.6592 85.2599 56.6592C74.564 56.6592 67.0229 65.1445 67.0229 76.3296C67.0229 87.5147 74.564 96 85.2599 96ZM50.9405 94.9972H62.4829V41H50.9405V94.9972ZM42.4761 41H30.7028C30.7028 50.6424 24.7777 59.2819 15.7746 65.453L12.235 67.9215V41H0V94.9972H12.235V68.23L32.4726 94.9972H47.4008L27.9326 69.3871C36.7818 62.9846 42.553 53.0337 42.4761 41Z" fill="black"/>
</svg>
